<svg width="320" height="96" viewBox="0 0 320 96" fill="none" xmlns="http://www.w3.org/2000/svg">
  <rect x="1" y="1" width="318" height="94" rx="14" stroke="#E5E7EB" stroke-opacity="0.35"/>
  <rect x="22" y="24" width="44" height="48" rx="8" fill="#E5E7EB" fill-opacity="0.12" stroke="#E5E7EB" stroke-opacity="0.6"/>
  <path d="M34 60V36h10c4 0 7 2 7 6 0 3-1 4-3 5 3 1 5 3 5 6 0 5-4 7-8 7H34Zm5-14h5c2 0 3-1 3-3 0-2-1-3-3-3h-5v6Zm0 10h6c2 0 4-1 4-3s-2-3-4-3h-6v6Z" fill="#E5E7EB"/>
  <text x="80" y="45" fill="#E5E7EB" font-family="Arial, Helvetica, sans-serif" font-size="17" font-weight="700" letter-spacing="0.08em">BYTE LEDGER</text>
  <text x="80" y="64" fill="#E5E7EB" fill-opacity="0.9" font-family="Arial, Helvetica, sans-serif" font-size="13" font-weight="600" letter-spacing="0.13em">COMMERCIAL PRODUCT</text>
</svg>
