<svg width="320" height="96" viewBox="0 0 320 96" fill="none" xmlns="http://www.w3.org/2000/svg">
  <rect x="1" y="1" width="318" height="94" rx="14" stroke="#E5E7EB" stroke-opacity="0.35"/>
  <circle cx="44" cy="48" r="22" fill="#E5E7EB" fill-opacity="0.12" stroke="#E5E7EB" stroke-opacity="0.6"/>
  <path d="M53 41a10 10 0 1 0 0 14l-2-2h-6v-4h8v7a14 14 0 1 1-9-25 14 14 0 0 1 10 4l-3 3a10 10 0 0 0-7-3 10 10 0 0 0-7 17 10 10 0 0 0 16-2h-8v-4h8v-6Z" fill="#E5E7EB"/>
  <text x="78" y="44" fill="#E5E7EB" font-family="Arial, Helvetica, sans-serif" font-size="16" font-weight="700" letter-spacing="0.08em">GLIMMERGLASS</text>
  <text x="78" y="64" fill="#E5E7EB" fill-opacity="0.9" font-family="Arial, Helvetica, sans-serif" font-size="13" font-weight="600" letter-spacing="0.14em">FIBERGLASS POOLS</text>
</svg>
